<?xml version="1.0" encoding="UTF-8"?>
<svg version="1.1" xmlns="http://www.w3.org/2000/svg" width="500" height="500">
<path d="M0 0 C165 0 330 0 500 0 C500 165 500 330 500 500 C335 500 170 500 0 500 C0 335 0 170 0 0 Z " fill="#FEFEFE" transform="translate(0,0)"/>
<path d="M0 0 C2.93453261 0.36681658 3.86437246 0.86437246 6 3 C6.17517747 5.72485728 6.23149133 8.34659362 6.1953125 11.0703125 C6.1924826 11.86654022 6.18965271 12.66276794 6.18673706 13.48312378 C6.1755264 16.03056763 6.15042062 18.57766211 6.125 21.125 C6.11497133 22.85025535 6.10584528 24.57551619 6.09765625 26.30078125 C6.07558422 30.53398914 6.04104867 34.7669353 6 39 C7.61841797 38.95286865 7.61841797 38.95286865 9.26953125 38.90478516 C13.30226353 38.79554828 17.33486726 38.72707505 21.36865234 38.67041016 C23.10878547 38.64038002 24.84876903 38.59954173 26.58837891 38.54736328 C42.91171805 38.07029148 42.91171805 38.07029148 48.03515625 41.82421875 C52.67222922 46.23690612 55.90425837 51.00318399 56.11352539 57.5534668 C56.1133674 59.01872699 56.10773819 60.48399324 56.09765625 61.94921875 C56.09553383 63.10814384 56.09553383 63.10814384 56.09336853 64.29048157 C56.08777466 66.75619389 56.07522333 69.22181515 56.0625 71.6875 C56.05748421 73.36002473 56.05292144 75.03255088 56.04882812 76.70507812 C56.03865847 80.80344866 56.01908194 84.90162248 56 89 C62.6 89 69.2 89 76 89 C76.66 87.68 77.32 86.36 78 85 C81.53430656 82.64379563 82.83571287 82.51008387 87 83 C92.57894737 86.15789474 92.57894737 86.15789474 94 89 C94.3689566 92.91093991 94.33226705 95.33546589 92.5625 98.875 C89.44215646 101.46260196 87.25472157 101.84766144 83.31640625 102.34765625 C81 102 81 102 76 98 C69.4 97.67 62.8 97.34 56 97 C56 114.49 56 131.98 56 150 C67.75766006 149.92084461 67.75766006 149.92084461 79.51513672 149.81982422 C80.98665071 149.81398425 82.45816792 149.80888752 83.9296875 149.8046875 C84.69676025 149.79445557 85.46383301 149.78422363 86.25415039 149.77368164 C88.17091862 149.77304758 90.08718046 149.87702736 92 150 C92.66 150.66 93.32 151.32 94 152 C93.44444444 156.55555556 93.44444444 156.55555556 92 158 C89.3339846 158.08854347 86.69330601 158.115319 84.02734375 158.09765625 C83.32065552 158.09664917 82.61396729 158.09564209 81.88586426 158.09460449 C79.23639309 158.08935745 76.58694498 158.07539629 73.9375 158.0625 C68.018125 158.041875 62.09875 158.02125 56 158 C56 175.82 56 193.64 56 212 C67.75766006 211.92084461 67.75766006 211.92084461 79.51513672 211.81982422 C80.98665071 211.81398425 82.45816792 211.80888752 83.9296875 211.8046875 C84.69676025 211.79445557 85.46383301 211.78422363 86.25415039 211.77368164 C88.17091862 211.77304758 90.08718046 211.87702736 92 212 C92.66 212.66 93.32 213.32 94 214 C93.44444444 218.55555556 93.44444444 218.55555556 92 220 C89.3337397 220.08855161 86.69352886 220.11524673 84.02734375 220.09765625 C83.22970108 220.0962413 82.43205841 220.09482635 81.61024475 220.09336853 C79.05262565 220.08775316 76.49509282 220.07519812 73.9375 220.0625 C72.20768355 220.05748698 70.47786574 220.05292373 68.74804688 220.04882812 C64.49866447 220.03777875 60.24934688 220.02050386 56 220 C56.01571045 220.95777344 56.0314209 221.91554688 56.04760742 222.90234375 C56.10229712 226.48803145 56.13649047 230.073683 56.16479492 233.65966797 C56.1797933 235.20562968 56.20019887 236.75154948 56.22631836 238.29736328 C56.52895379 256.68098193 56.52895379 256.68098193 51.16796875 263.2421875 C50.51441406 263.78101563 49.86085938 264.31984375 49.1875 264.875 C48.54167969 265.42929687 47.89585937 265.98359375 47.23046875 266.5546875 C42.15138686 269.8458614 37.10767184 270.28365186 31.1953125 270.1953125 C30.4713327 270.1924826 29.74735291 270.18965271 29.00143433 270.18673706 C26.7091151 270.17562087 24.41719937 270.15053312 22.125 270.125 C20.56250568 270.1149591 19.00000518 270.10583519 17.4375 270.09765625 C13.62484662 270.07570973 9.81249152 270.04124013 6 270 C6.01047363 271.08007324 6.02094727 272.16014648 6.03173828 273.27294922 C6.06788194 277.27226459 6.09087984 281.27156546 6.10986328 285.27099609 C6.11993376 287.00344265 6.13359089 288.73587216 6.15087891 290.46826172 C6.17508162 292.95544639 6.18647239 295.44240675 6.1953125 297.9296875 C6.20563507 298.70682098 6.21595764 299.48395447 6.22659302 300.28463745 C6.22699271 302.19125493 6.1223214 304.09731036 6 306 C5.34 306.66 4.68 307.32 4 308 C-0.55555556 307.44444444 -0.55555556 307.44444444 -2 306 C-2.08854347 303.3339846 -2.115319 300.69330601 -2.09765625 298.02734375 C-2.09664917 297.32065552 -2.09564209 296.61396729 -2.09460449 295.88586426 C-2.08935745 293.23639309 -2.07539629 290.58694498 -2.0625 287.9375 C-2.041875 282.018125 -2.02125 276.09875 -2 270 C-19.82 270 -37.64 270 -56 270 C-55.92084461 281.75766006 -55.92084461 281.75766006 -55.81982422 293.51513672 C-55.81398425 294.98665071 -55.80888752 296.45816792 -55.8046875 297.9296875 C-55.79445557 298.69676025 -55.78422363 299.46383301 -55.77368164 300.25415039 C-55.77304758 302.17091862 -55.87702736 304.08718046 -56 306 C-56.66 306.66 -57.32 307.32 -58 308 C-62.55555556 307.44444444 -62.55555556 307.44444444 -64 306 C-64.08854347 303.3339846 -64.115319 300.69330601 -64.09765625 298.02734375 C-64.09664917 297.32065552 -64.09564209 296.61396729 -64.09460449 295.88586426 C-64.08935745 293.23639309 -64.07539629 290.58694498 -64.0625 287.9375 C-64.041875 282.018125 -64.02125 276.09875 -64 270 C-81.49 270 -98.98 270 -117 270 C-118.0316253 288.45970826 -118.0316253 288.45970826 -112 295 C-111.38775743 299.285698 -111.49544174 301.226344 -113.875 304.875 C-116.60044891 307.60044891 -117.43500609 307.94669869 -121.3125 308.3125 C-125 308 -125 308 -127.875 306.5625 C-130.48500888 303.41513634 -130.95872375 301.21745812 -131.2109375 297.1953125 C-130.88907951 293.8456053 -129.46621736 292.18436395 -127 290 C-126.34 290 -125.68 290 -125 290 C-125 283.4 -125 276.8 -125 270 C-127.43375 270.04640625 -129.8675 270.0928125 -132.375 270.140625 C-134.75469888 270.17189691 -137.13437412 270.19614097 -139.51416016 270.21972656 C-141.1571695 270.23973571 -142.80010859 270.26695213 -144.44287109 270.30175781 C-146.81625788 270.35075305 -149.18869649 270.37307504 -151.5625 270.390625 C-152.28679199 270.41127014 -153.01108398 270.43191528 -153.75732422 270.45318604 C-160.12497484 270.45593387 -165.30348539 268.42532814 -170.05859375 264.1484375 C-170.51363281 263.56320312 -170.96867187 262.97796875 -171.4375 262.375 C-171.91058594 261.78460938 -172.38367188 261.19421875 -172.87109375 260.5859375 C-175.59794884 256.75513069 -175.1261378 253.02205918 -175.09765625 248.4921875 C-175.0962413 247.65156769 -175.09482635 246.81094788 -175.09336853 245.94485474 C-175.08776237 243.25486725 -175.07520886 240.56496241 -175.0625 237.875 C-175.05748579 236.05338662 -175.05292275 234.23177193 -175.04882812 232.41015625 C-175.038641 227.94004656 -175.01906685 223.47011601 -175 219 C-181.93 219 -188.86 219 -196 219 C-196.99 220.98 -196.99 220.98 -198 223 C-201.7373856 225.4915904 -203.57331583 225.45793285 -208 225 C-210.94354571 223.46423702 -212.49892777 222.30835527 -213.703125 219.1640625 C-214.56512205 214.99774344 -214.19664741 213.33798773 -212 209.5625 C-208.42618022 206.50986227 -206.68307053 205.83568174 -202 206 C-198.5625 207.8125 -198.5625 207.8125 -196 210 C-196 210.66 -196 211.32 -196 212 C-189.07 212 -182.14 212 -175 212 C-175 194.18 -175 176.36 -175 158 C-187.0867591 158.07915803 -187.0867591 158.07915803 -199.17333984 158.18017578 C-200.68586954 158.18601566 -202.19840236 158.19111241 -203.7109375 158.1953125 C-204.89393433 158.2106604 -204.89393433 158.2106604 -206.10083008 158.22631836 C-208.06866651 158.22695172 -210.03601526 158.12306332 -212 158 C-212.66 157.34 -213.32 156.68 -214 156 C-213.44444444 151.44444444 -213.44444444 151.44444444 -212 150 C-209.26129758 149.91142125 -206.54725017 149.88469293 -203.80859375 149.90234375 C-203.08224731 149.90335083 -202.35590088 149.90435791 -201.60754395 149.90539551 C-198.88417999 149.91064284 -196.16083847 149.924604 -193.4375 149.9375 C-187.353125 149.958125 -181.26875 149.97875 -175 150 C-175 132.18 -175 114.36 -175 96 C-187.0867591 96.07915803 -187.0867591 96.07915803 -199.17333984 96.18017578 C-200.68586954 96.18601566 -202.19840236 96.19111241 -203.7109375 96.1953125 C-204.49960205 96.20554443 -205.2882666 96.21577637 -206.10083008 96.22631836 C-208.06866651 96.22695172 -210.03601526 96.12306332 -212 96 C-212.66 95.34 -213.32 94.68 -214 94 C-213.46428571 90.46428571 -213.46428571 90.46428571 -212 89 C-209.26105915 88.91141354 -206.5474673 88.88476521 -203.80859375 88.90234375 C-202.57883568 88.90446617 -202.57883568 88.90446617 -201.32423401 88.90663147 C-198.69528618 88.91224711 -196.06642227 88.92480221 -193.4375 88.9375 C-191.65950643 88.94251299 -189.88151154 88.94707624 -188.10351562 88.95117188 C-183.73564455 88.96222161 -179.36783652 88.97949669 -175 89 C-175.02618408 87.92105469 -175.05236816 86.84210938 -175.0793457 85.73046875 C-175.17037856 81.69764234 -175.22744012 77.66490527 -175.2746582 73.63134766 C-175.29968233 71.89128304 -175.33371294 70.15132227 -175.37719727 68.41162109 C-175.4383892 65.89915245 -175.46632959 63.3880822 -175.48828125 60.875 C-175.52699089 59.72294067 -175.52699089 59.72294067 -175.56648254 58.54760742 C-175.56952059 52.59335304 -173.96390992 48.47825856 -170 44 C-164.73875552 39.34303369 -159.99786968 38.28078766 -153.125 38.51171875 C-152.31506592 38.51879349 -151.50513184 38.52586823 -150.6706543 38.53315735 C-148.11278359 38.5608911 -145.55719594 38.62358216 -143 38.6875 C-141.25393812 38.71261037 -139.50784154 38.73541872 -137.76171875 38.75585938 C-133.50625015 38.80637538 -129.25564472 38.90424799 -125 39 C-125 32.07 -125 25.14 -125 18 C-126.32 17.34 -127.64 16.68 -129 16 C-131.29968563 12.78044012 -131.55348638 9.87440468 -131 6 C-128.96881409 2.9859822 -127.45970907 1.3273127 -123.83984375 0.515625 C-119.60533173 0.26113012 -117.51409725 0.65377124 -113.9375 3.0625 C-111.49504828 6.76557196 -111.2992156 8.63956374 -112 13 C-113.875 15.9375 -113.875 15.9375 -116 18 C-116.66 18 -117.32 18 -118 18 C-118 24.93 -118 31.86 -118 39 C-100.18 39 -82.36 39 -64 39 C-64 26.79 -64 14.58 -64 2 C-60.535 1.505 -60.535 1.505 -57 1 C-56 2 -56 2 -55.88647461 5.51000977 C-55.88672569 7.07048421 -55.8922866 8.6309642 -55.90234375 10.19140625 C-55.90335083 10.91775269 -55.90435791 11.64409912 -55.90539551 12.39245605 C-55.91064284 15.11582001 -55.924604 17.83916153 -55.9375 20.5625 C-55.958125 26.646875 -55.97875 32.73125 -56 39 C-38.18 39 -20.36 39 -2 39 C-2.07915803 26.9132409 -2.07915803 26.9132409 -2.18017578 14.82666016 C-2.18601566 13.31413046 -2.19111241 11.80159764 -2.1953125 10.2890625 C-2.20554443 9.50039795 -2.21577637 8.7117334 -2.22631836 7.89916992 C-2.22695172 5.93133349 -2.12306332 3.96398474 -2 2 C-1.34 1.34 -0.68 0.68 0 0 Z " fill="#FCFCFC" transform="translate(310,96)"/>
<path d="M0 0 C1.63278989 0.98530424 3.2257412 2.0359108 4.8125 3.09375 C8.86393945 3.45827593 8.86393945 3.45827593 11.875 1.09375 C16.65008525 -1.77539993 21.40453483 -1.66103075 26.8125 -0.90625 C32.21711945 0.6392334 35.86909717 3.43403119 38.9140625 8.14453125 C40.43134941 11.43638416 40.62290748 14.49149213 40.8125 18.09375 C41.71871094 18.04734375 42.62492187 18.0009375 43.55859375 17.953125 C54.01142746 17.64341141 61.39987487 19.11506064 69.2421875 26.24609375 C74.52357207 32.46026017 76.96307961 39.5317767 76.5 47.53125 C76.39286455 50.98363492 76.39286455 50.98363492 76.8125 54.09375 C79.44152262 56.73547754 79.44152262 56.73547754 82.8125 58.09375 C86.63430646 62.23404033 88.5407837 65.73887544 89.1875 71.34375 C88.70551728 76.16357724 86.98070603 79.81273006 84.8125 84.09375 C84.43867188 84.84269531 84.06484375 85.59164062 83.6796875 86.36328125 C83.39351562 86.93433594 83.10734375 87.50539063 82.8125 88.09375 C83.21082031 88.59003906 83.60914063 89.08632812 84.01953125 89.59765625 C90.14778801 97.45554266 93.03345815 104.02084529 91.8125 114.09375 C90.02140872 121.32208266 86.40740181 127.17349332 80.8125 132.09375 C79.53959491 132.73650405 78.24790429 133.34387937 76.9375 133.90625 C73.61128716 135.70727349 73.61128716 135.70727349 73.29296875 138.49609375 C73.17937743 140.4218629 73.09152645 142.34929542 73.02734375 144.27734375 C72.57093365 150.26046521 69.78524458 154.47690486 65.4375 158.46875 C60.28573411 162.83920542 55.11567157 163.26955344 48.5625 162.90625 C42.17846228 162.78768038 38.57565487 163.81444553 33.13671875 166.9609375 C29.02876295 168.96313445 25.24437232 168.96368475 20.8125 168.09375 C15.95019084 166.27470689 11.19575106 164.15147555 7.8125 160.09375 C7.8125 159.43375 7.8125 158.77375 7.8125 158.09375 C7.1525 158.09375 6.4925 158.09375 5.8125 158.09375 C5.565 158.69832031 5.3175 159.30289063 5.0625 159.92578125 C3.60445246 162.45458245 2.31467655 163.32318021 -0.1875 164.78125 C-0.88875 165.19761719 -1.59 165.61398437 -2.3125 166.04296875 C-7.17064265 168.76555286 -11.68121729 168.65621974 -17.1875 168.09375 C-20.44739269 166.95897723 -23.70606589 165.57518411 -26.1875 163.09375 C-28.09685686 163.11695765 -30.00639049 163.14632508 -31.91479492 163.2109375 C-46.08668747 163.63765 -46.08668747 163.63765 -51.1875 159.09375 C-55.17000674 154.7876084 -59.16207356 149.86321906 -59.203125 143.77734375 C-59.25241889 141.02099362 -59.3923915 138.73983687 -60.1875 136.09375 C-62.256148 134.19530721 -64.38556078 132.96279695 -66.828125 131.5859375 C-72.486155 128.00751455 -75.48508485 122.42580998 -77.1875 116.09375 C-77.96883114 107.75349439 -78.23823859 100.06857948 -73.1875 93.09375 C-72.48625 92.10375 -71.785 91.11375 -71.0625 90.09375 C-70.44375 89.43375 -69.825 88.77375 -69.1875 88.09375 C-68.5275 88.09375 -67.8675 88.09375 -67.1875 88.09375 C-67.60902344 87.55105469 -68.03054687 87.00835937 -68.46484375 86.44921875 C-69.01269531 85.73378906 -69.56054688 85.01835937 -70.125 84.28125 C-70.67027344 83.57355469 -71.21554688 82.86585938 -71.77734375 82.13671875 C-75.24475063 77.11330103 -74.97220901 70.94205298 -74.1875 65.09375 C-72.18439601 60.85899995 -69.78009798 57.84924304 -65.51953125 55.828125 C-62.82687145 54.23729928 -62.82687145 54.23729928 -62.5859375 50.80078125 C-62.57820312 49.51558594 -62.57046875 48.23039062 -62.5625 46.90625 C-62.29471976 38.30445108 -60.89385217 32.18265149 -54.9296875 25.69921875 C-48.72567319 19.98206655 -42.95133461 17.94564026 -34.5625 17.96875 C-33.62148437 17.96617187 -32.68046875 17.96359375 -31.7109375 17.9609375 C-29.1875 18.09375 -29.1875 18.09375 -26.1875 19.09375 C-26.3421875 17.36125 -26.3421875 17.36125 -26.5 15.59375 C-26.48157799 10.39874437 -24.54674642 6.96716679 -21.1875 3.09375 C-15.2767553 -1.73134772 -7.21330421 -2.98836889 0 0 Z " fill="#FCFCFC" transform="translate(243.1875,166.90625)"/>
<path d="M0 0 C2.93453261 0.36681658 3.86437246 0.86437246 6 3 C6.17517747 5.72485728 6.23149133 8.34659362 6.1953125 11.0703125 C6.1924826 11.86654022 6.18965271 12.66276794 6.18673706 13.48312378 C6.1755264 16.03056763 6.15042062 18.57766211 6.125 21.125 C6.11497133 22.85025535 6.10584528 24.57551619 6.09765625 26.30078125 C6.07558422 30.53398914 6.04104867 34.7669353 6 39 C7.61841797 38.95286865 7.61841797 38.95286865 9.26953125 38.90478516 C13.30226353 38.79554828 17.33486726 38.72707505 21.36865234 38.67041016 C23.10878547 38.64038002 24.84876903 38.59954173 26.58837891 38.54736328 C42.91171805 38.07029148 42.91171805 38.07029148 48.03515625 41.82421875 C52.67222922 46.23690612 55.90425837 51.00318399 56.11352539 57.5534668 C56.1133674 59.01872699 56.10773819 60.48399324 56.09765625 61.94921875 C56.09553383 63.10814384 56.09553383 63.10814384 56.09336853 64.29048157 C56.08777466 66.75619389 56.07522333 69.22181515 56.0625 71.6875 C56.05748421 73.36002473 56.05292144 75.03255088 56.04882812 76.70507812 C56.03865847 80.80344866 56.01908194 84.90162248 56 89 C62.6 89 69.2 89 76 89 C76.66 87.68 77.32 86.36 78 85 C81.53430656 82.64379563 82.83571287 82.51008387 87 83 C92.57894737 86.15789474 92.57894737 86.15789474 94 89 C94.3689566 92.91093991 94.33226705 95.33546589 92.5625 98.875 C89.44215646 101.46260196 87.25472157 101.84766144 83.31640625 102.34765625 C81 102 81 102 76 98 C69.4 97.67 62.8 97.34 56 97 C56 114.49 56 131.98 56 150 C67.75766006 149.92084461 67.75766006 149.92084461 79.51513672 149.81982422 C80.98665071 149.81398425 82.45816792 149.80888752 83.9296875 149.8046875 C84.69676025 149.79445557 85.46383301 149.78422363 86.25415039 149.77368164 C88.17091862 149.77304758 90.08718046 149.87702736 92 150 C92.66 150.66 93.32 151.32 94 152 C93.44444444 156.55555556 93.44444444 156.55555556 92 158 C89.3339846 158.08854347 86.69330601 158.115319 84.02734375 158.09765625 C83.32065552 158.09664917 82.61396729 158.09564209 81.88586426 158.09460449 C79.23639309 158.08935745 76.58694498 158.07539629 73.9375 158.0625 C68.018125 158.041875 62.09875 158.02125 56 158 C56 175.82 56 193.64 56 212 C67.75766006 211.92084461 67.75766006 211.92084461 79.51513672 211.81982422 C80.98665071 211.81398425 82.45816792 211.80888752 83.9296875 211.8046875 C84.69676025 211.79445557 85.46383301 211.78422363 86.25415039 211.77368164 C88.17091862 211.77304758 90.08718046 211.87702736 92 212 C92.66 212.66 93.32 213.32 94 214 C93.44444444 218.55555556 93.44444444 218.55555556 92 220 C89.3337397 220.08855161 86.69352886 220.11524673 84.02734375 220.09765625 C83.22970108 220.0962413 82.43205841 220.09482635 81.61024475 220.09336853 C79.05262565 220.08775316 76.49509282 220.07519812 73.9375 220.0625 C72.20768355 220.05748698 70.47786574 220.05292373 68.74804688 220.04882812 C64.49866447 220.03777875 60.24934688 220.02050386 56 220 C56.01571045 220.95777344 56.0314209 221.91554688 56.04760742 222.90234375 C56.10229712 226.48803145 56.13649047 230.073683 56.16479492 233.65966797 C56.1797933 235.20562968 56.20019887 236.75154948 56.22631836 238.29736328 C56.52895379 256.68098193 56.52895379 256.68098193 51.16796875 263.2421875 C50.51441406 263.78101563 49.86085938 264.31984375 49.1875 264.875 C48.54167969 265.42929687 47.89585937 265.98359375 47.23046875 266.5546875 C42.15138686 269.8458614 37.10767184 270.28365186 31.1953125 270.1953125 C30.4713327 270.1924826 29.74735291 270.18965271 29.00143433 270.18673706 C26.7091151 270.17562087 24.41719937 270.15053312 22.125 270.125 C20.56250568 270.1149591 19.00000518 270.10583519 17.4375 270.09765625 C13.62484662 270.07570973 9.81249152 270.04124013 6 270 C6.01047363 271.08007324 6.02094727 272.16014648 6.03173828 273.27294922 C6.06788194 277.27226459 6.09087984 281.27156546 6.10986328 285.27099609 C6.11993376 287.00344265 6.13359089 288.73587216 6.15087891 290.46826172 C6.17508162 292.95544639 6.18647239 295.44240675 6.1953125 297.9296875 C6.20563507 298.70682098 6.21595764 299.48395447 6.22659302 300.28463745 C6.22699271 302.19125493 6.1223214 304.09731036 6 306 C5.34 306.66 4.68 307.32 4 308 C-0.55555556 307.44444444 -0.55555556 307.44444444 -2 306 C-2.08854347 303.3339846 -2.115319 300.69330601 -2.09765625 298.02734375 C-2.09664917 297.32065552 -2.09564209 296.61396729 -2.09460449 295.88586426 C-2.08935745 293.23639309 -2.07539629 290.58694498 -2.0625 287.9375 C-2.041875 282.018125 -2.02125 276.09875 -2 270 C-19.82 270 -37.64 270 -56 270 C-55.92084461 281.75766006 -55.92084461 281.75766006 -55.81982422 293.51513672 C-55.81398425 294.98665071 -55.80888752 296.45816792 -55.8046875 297.9296875 C-55.79445557 298.69676025 -55.78422363 299.46383301 -55.77368164 300.25415039 C-55.77304758 302.17091862 -55.87702736 304.08718046 -56 306 C-56.66 306.66 -57.32 307.32 -58 308 C-62.55555556 307.44444444 -62.55555556 307.44444444 -64 306 C-64.08854347 303.3339846 -64.115319 300.69330601 -64.09765625 298.02734375 C-64.09664917 297.32065552 -64.09564209 296.61396729 -64.09460449 295.88586426 C-64.08935745 293.23639309 -64.07539629 290.58694498 -64.0625 287.9375 C-64.041875 282.018125 -64.02125 276.09875 -64 270 C-81.49 270 -98.98 270 -117 270 C-118.0316253 288.45970826 -118.0316253 288.45970826 -112 295 C-111.38775743 299.285698 -111.49544174 301.226344 -113.875 304.875 C-116.60044891 307.60044891 -117.43500609 307.94669869 -121.3125 308.3125 C-125 308 -125 308 -127.875 306.5625 C-130.48500888 303.41513634 -130.95872375 301.21745812 -131.2109375 297.1953125 C-130.88907951 293.8456053 -129.46621736 292.18436395 -127 290 C-126.34 290 -125.68 290 -125 290 C-125 283.4 -125 276.8 -125 270 C-127.43375 270.04640625 -129.8675 270.0928125 -132.375 270.140625 C-134.75469888 270.17189691 -137.13437412 270.19614097 -139.51416016 270.21972656 C-141.1571695 270.23973571 -142.80010859 270.26695213 -144.44287109 270.30175781 C-146.81625788 270.35075305 -149.18869649 270.37307504 -151.5625 270.390625 C-152.28679199 270.41127014 -153.01108398 270.43191528 -153.75732422 270.45318604 C-160.12497484 270.45593387 -165.30348539 268.42532814 -170.05859375 264.1484375 C-170.51363281 263.56320312 -170.96867187 262.97796875 -171.4375 262.375 C-171.91058594 261.78460938 -172.38367188 261.19421875 -172.87109375 260.5859375 C-175.59794884 256.75513069 -175.1261378 253.02205918 -175.09765625 248.4921875 C-175.0962413 247.65156769 -175.09482635 246.81094788 -175.09336853 245.94485474 C-175.08776237 243.25486725 -175.07520886 240.56496241 -175.0625 237.875 C-175.05748579 236.05338662 -175.05292275 234.23177193 -175.04882812 232.41015625 C-175.038641 227.94004656 -175.01906685 223.47011601 -175 219 C-181.93 219 -188.86 219 -196 219 C-196.99 220.98 -196.99 220.98 -198 223 C-201.7373856 225.4915904 -203.57331583 225.45793285 -208 225 C-210.94354571 223.46423702 -212.49892777 222.30835527 -213.703125 219.1640625 C-214.56512205 214.99774344 -214.19664741 213.33798773 -212 209.5625 C-208.42618022 206.50986227 -206.68307053 205.83568174 -202 206 C-198.5625 207.8125 -198.5625 207.8125 -196 210 C-196 210.66 -196 211.32 -196 212 C-189.07 212 -182.14 212 -175 212 C-175 194.18 -175 176.36 -175 158 C-187.0867591 158.07915803 -187.0867591 158.07915803 -199.17333984 158.18017578 C-200.68586954 158.18601566 -202.19840236 158.19111241 -203.7109375 158.1953125 C-204.89393433 158.2106604 -204.89393433 158.2106604 -206.10083008 158.22631836 C-208.06866651 158.22695172 -210.03601526 158.12306332 -212 158 C-212.66 157.34 -213.32 156.68 -214 156 C-213.44444444 151.44444444 -213.44444444 151.44444444 -212 150 C-209.26129758 149.91142125 -206.54725017 149.88469293 -203.80859375 149.90234375 C-203.08224731 149.90335083 -202.35590088 149.90435791 -201.60754395 149.90539551 C-198.88417999 149.91064284 -196.16083847 149.924604 -193.4375 149.9375 C-187.353125 149.958125 -181.26875 149.97875 -175 150 C-175 132.18 -175 114.36 -175 96 C-187.0867591 96.07915803 -187.0867591 96.07915803 -199.17333984 96.18017578 C-200.68586954 96.18601566 -202.19840236 96.19111241 -203.7109375 96.1953125 C-204.49960205 96.20554443 -205.2882666 96.21577637 -206.10083008 96.22631836 C-208.06866651 96.22695172 -210.03601526 96.12306332 -212 96 C-212.66 95.34 -213.32 94.68 -214 94 C-213.46428571 90.46428571 -213.46428571 90.46428571 -212 89 C-209.26105915 88.91141354 -206.5474673 88.88476521 -203.80859375 88.90234375 C-202.57883568 88.90446617 -202.57883568 88.90446617 -201.32423401 88.90663147 C-198.69528618 88.91224711 -196.06642227 88.92480221 -193.4375 88.9375 C-191.65950643 88.94251299 -189.88151154 88.94707624 -188.10351562 88.95117188 C-183.73564455 88.96222161 -179.36783652 88.97949669 -175 89 C-175.02618408 87.92105469 -175.05236816 86.84210938 -175.0793457 85.73046875 C-175.17037856 81.69764234 -175.22744012 77.66490527 -175.2746582 73.63134766 C-175.29968233 71.89128304 -175.33371294 70.15132227 -175.37719727 68.41162109 C-175.4383892 65.89915245 -175.46632959 63.3880822 -175.48828125 60.875 C-175.52699089 59.72294067 -175.52699089 59.72294067 -175.56648254 58.54760742 C-175.56952059 52.59335304 -173.96390992 48.47825856 -170 44 C-164.73875552 39.34303369 -159.99786968 38.28078766 -153.125 38.51171875 C-152.31506592 38.51879349 -151.50513184 38.52586823 -150.6706543 38.53315735 C-148.11278359 38.5608911 -145.55719594 38.62358216 -143 38.6875 C-141.25393812 38.71261037 -139.50784154 38.73541872 -137.76171875 38.75585938 C-133.50625015 38.80637538 -129.25564472 38.90424799 -125 39 C-125 32.07 -125 25.14 -125 18 C-126.32 17.34 -127.64 16.68 -129 16 C-131.29968563 12.78044012 -131.55348638 9.87440468 -131 6 C-128.96881409 2.9859822 -127.45970907 1.3273127 -123.83984375 0.515625 C-119.60533173 0.26113012 -117.51409725 0.65377124 -113.9375 3.0625 C-111.49504828 6.76557196 -111.2992156 8.63956374 -112 13 C-113.875 15.9375 -113.875 15.9375 -116 18 C-116.66 18 -117.32 18 -118 18 C-118 24.93 -118 31.86 -118 39 C-100.18 39 -82.36 39 -64 39 C-64 26.79 -64 14.58 -64 2 C-60.535 1.505 -60.535 1.505 -57 1 C-56 2 -56 2 -55.88647461 5.51000977 C-55.88672569 7.07048421 -55.8922866 8.6309642 -55.90234375 10.19140625 C-55.90335083 10.91775269 -55.90435791 11.64409912 -55.90539551 12.39245605 C-55.91064284 15.11582001 -55.924604 17.83916153 -55.9375 20.5625 C-55.958125 26.646875 -55.97875 32.73125 -56 39 C-38.18 39 -20.36 39 -2 39 C-2.07915803 26.9132409 -2.07915803 26.9132409 -2.18017578 14.82666016 C-2.18601566 13.31413046 -2.19111241 11.80159764 -2.1953125 10.2890625 C-2.20554443 9.50039795 -2.21577637 8.7117334 -2.22631836 7.89916992 C-2.22695172 5.93133349 -2.12306332 3.96398474 -2 2 C-1.34 1.34 -0.68 0.68 0 0 Z M-166.85077 52.24514103 C-168.36529757 55.87566744 -168.41860428 59.20966696 -168.38768005 63.07774353 C-168.39306559 63.88632563 -168.39845113 64.69490772 -168.40399987 65.52799231 C-168.41829669 68.23488123 -168.41117153 70.94128232 -168.40405273 73.64819336 C-168.4097554 75.58991387 -168.41671925 77.53163103 -168.42485046 79.4733429 C-168.44280836 84.74605705 -168.44160853 90.01860502 -168.43590808 95.29134059 C-168.43282005 99.69255448 -168.43890437 104.09373626 -168.44494683 108.49494559 C-168.45899907 118.87743549 -168.45742491 129.25984312 -168.44604492 139.64233398 C-168.43456251 150.35502752 -168.44863993 161.06747074 -168.4754414 171.78013128 C-168.49758916 180.97687066 -168.50423786 190.17353142 -168.49836498 199.37029558 C-168.49499207 204.86347576 -168.49743281 210.35649547 -168.51461601 215.84965324 C-168.5300683 221.01500914 -168.52614854 226.17999386 -168.50731087 231.34533501 C-168.50362026 233.24079822 -168.50674716 235.13628883 -168.51719666 237.03172684 C-168.53037609 239.62000466 -168.51888662 242.20704816 -168.50120544 244.79527283 C-168.51081045 245.54479294 -168.52041546 246.29431306 -168.53031152 247.0665459 C-168.4445061 253.17412297 -166.35375002 256.51171643 -162.24929523 260.85077 C-158.91515478 262.5542788 -155.66978381 262.41669258 -152.01127625 262.38768005 C-151.20017059 262.39306559 -150.38906493 262.39845113 -149.55338031 262.40399987 C-146.83190123 262.41832235 -144.11090561 262.41116516 -141.3894043 262.40405273 C-139.43960172 262.40975415 -137.48980249 262.41671752 -135.54000854 262.42485046 C-130.24030969 262.44282462 -124.94077603 262.44160519 -119.64105582 262.43590808 C-115.21761847 262.43282162 -110.7942131 262.43890281 -106.37078029 262.44494683 C-95.93409025 262.45900514 -85.49748203 262.45742059 -75.06079102 262.44604492 C-64.29417511 262.43456894 -53.52780845 262.44862775 -42.7612254 262.4754414 C-33.51863115 262.49759776 -24.27611513 262.50423571 -15.0334962 262.49836498 C-9.5128828 262.49499328 -3.99242908 262.49742448 1.528162 262.51461601 C6.72141336 262.53008139 11.91429575 262.52613392 17.1075325 262.50731087 C19.01225018 262.50362353 20.91699516 262.50673766 22.8216877 262.51719666 C25.42499192 262.53039882 28.02707339 262.51886625 30.63032532 262.50120544 C31.38150566 262.51081045 32.132686 262.52041546 32.90662938 262.53031152 C38.46751971 262.45286182 41.60846083 261.22959572 46 258 C48.55880526 253.95962592 48.28902087 249.53569437 48.27415466 244.8842926 C48.27939134 244.07162695 48.28462802 243.2589613 48.29002339 242.42166942 C48.30501425 239.70106628 48.30572833 236.98065136 48.30639648 234.26000977 C48.31401845 232.30843794 48.32244602 230.35686911 48.33161926 228.40530396 C48.35356433 223.10577361 48.36236291 217.80630097 48.36744571 212.50673032 C48.37108852 209.1961551 48.37732813 205.88559501 48.3844471 202.57502556 C48.40893926 191.02681692 48.4219935 179.47865321 48.42553711 167.93041992 C48.4291747 157.16316535 48.45908679 146.39619543 48.50094169 135.6290279 C48.53561488 126.38558776 48.55108502 117.14224212 48.55178314 107.89873737 C48.55257681 102.37755339 48.56135726 96.85665951 48.58978081 91.33554268 C48.61591118 86.14388523 48.61819469 80.9527595 48.60212517 75.76106644 C48.60030682 73.85591538 48.60703611 71.95073409 48.62294388 70.04564857 C48.64334335 67.44403085 48.63288983 64.8442844 48.61473083 62.24269104 C48.63453079 61.11257444 48.63453079 61.11257444 48.65473074 59.95962721 C48.59373432 56.13225806 48.0535433 53.58336704 45.71157932 50.60983181 C40.92061508 45.99864055 37.56615459 45.70580087 31.04251099 45.73257446 C30.23478331 45.72804335 29.42705564 45.72351224 28.59485137 45.71884382 C25.88495364 45.70617108 23.17525614 45.70782203 20.46533203 45.70947266 C18.52376038 45.70348921 16.58219112 45.69668409 14.640625 45.68911743 C9.36375509 45.67143183 4.08695003 45.66676098 -1.18994665 45.66548586 C-5.59359045 45.66358776 -9.99721911 45.65623129 -14.40085709 45.64914167 C-24.78954403 45.6328505 -35.17819629 45.62797339 -45.56689453 45.62939453 C-56.2869413 45.63059628 -67.00678684 45.60948946 -77.72678268 45.5779072 C-86.92773985 45.55176516 -96.12863122 45.54102636 -105.32962525 45.54230535 C-110.82618475 45.54281558 -116.32256544 45.53709875 -121.81908798 45.51594925 C-126.98851845 45.49660174 -132.1575989 45.49641858 -137.32704163 45.51098251 C-139.22412247 45.51307602 -141.12122502 45.50833758 -143.01826859 45.4962616 C-145.60877289 45.48083957 -148.19806574 45.49009664 -150.7885437 45.50552368 C-151.53874594 45.49523656 -152.28894817 45.48494943 -153.06188381 45.47435057 C-159.26043329 45.55589004 -162.93295172 47.49249506 -166.85077 52.24514103 Z " fill="#060606" transform="translate(310,96)"/>
<path d="M0 0 C2.93423195 1.79646854 4.47205355 2.9441071 6 6 C6.09189837 7.43182823 6.12193458 8.86786948 6.12025452 10.30264282 C6.12231651 11.65723854 6.12231651 11.65723854 6.12442017 13.03919983 C6.11902725 14.52920753 6.11902725 14.52920753 6.11352539 16.04931641 C6.11367142 17.09324051 6.11381744 18.13716461 6.1139679 19.21272278 C6.11326922 22.67569023 6.10547891 26.1386044 6.09765625 29.6015625 C6.09579191 31.99767019 6.09436808 34.39377827 6.09336853 36.78988647 C6.08954461 43.10608975 6.07971538 49.42227014 6.06866455 55.73846436 C6.05844774 62.17980642 6.05387033 68.62115217 6.04882812 75.0625 C6.03809302 87.70834311 6.02120945 100.35417034 6 113 C5.06140137 112.67620361 4.12280273 112.35240723 3.15576172 112.01879883 C-3.29899055 109.93496151 -9.99892088 110.28628244 -16.24609375 112.94921875 C-20.43829214 115.46080309 -23.14575094 119.5382132 -25 124 C-25.23979762 126.36222232 -25.23979762 126.36222232 -25.125 128.75 C-25.10695312 129.54921875 -25.08890625 130.3484375 -25.0703125 131.171875 C-25.04710937 131.77515625 -25.02390625 132.3784375 -25 133 C-23.02 133 -21.04 133 -19 133 C-18.938125 131.80375 -18.87625 130.6075 -18.8125 129.375 C-18.23148196 124.5645124 -16.38695459 122.38695459 -13 119 C-9.30044901 117.15022451 -5.03799166 117.52943089 -1 118 C2.39488422 120.05107588 3.80323081 121.70484621 6 125 C6.22277192 127.81502705 6.32445221 130.49894994 6.3125 133.3125 C6.32861328 134.05951172 6.34472656 134.80652344 6.36132812 135.57617188 C6.36561218 140.45571284 5.66409207 143.76542883 3 148 C-1.35042216 152.0241405 -4.82948899 153.3962758 -10.8125 153.36328125 C-14.1486785 152.80923732 -16.43922896 151.07693634 -19.1875 149.1875 C-21.4894731 147.67931073 -23.24469418 147.07446772 -26 147 C-26.7425 147.33 -27.485 147.66 -28.25 148 C-32.3231883 149.48115938 -35.84705259 149.14059823 -40 148 C-43.76679107 145.8612288 -46.503971 143.08822671 -48 139 C-48.13958857 136.37573495 -48.18931369 133.86707253 -48.125 131.25 C-48.11597656 130.55261719 -48.10695312 129.85523438 -48.09765625 129.13671875 C-48.07419888 127.42433042 -48.03833104 125.71211996 -48 124 C-48.56847656 123.78085937 -49.13695312 123.56171875 -49.72265625 123.3359375 C-56.69972556 120.47056346 -62.01270353 117.33352957 -65.9375 110.75 C-67.78682665 104.22296477 -68.1178526 98.54230311 -65.125 92.3125 C-61.92508901 87.09989138 -57.15107303 84.11064799 -52 81 C-52.20490366 79.05114904 -52.20490366 79.05114904 -53 77 C-54.7451852 75.7977622 -54.7451852 75.7977622 -56.875 75 C-62.49773983 72.38008538 -62.49773983 72.38008538 -64 69 C-64.64170648 64.02677482 -64.60709317 62.03793348 -62.0625 57.6875 C-58.77568749 54.20119887 -54.53744726 53.12694768 -50 52 C-50.56739868 47.87026372 -50.56739868 47.87026372 -52 44 C-52.86330923 37.30581532 -51.65205601 31.68097601 -48 26 C-43.41887322 20.91950869 -38.69011449 18.0322495 -31.8125 17.5625 C-26.89423121 17.62829624 -23.42833815 19.52808893 -19.26171875 22.00390625 C-16.65211894 23.15321186 -15.61560201 22.999555 -13 22 C-13.27540704 18.18186553 -13.27540704 18.18186553 -15 15 C-15.64126224 10.05311987 -15.72462965 6.20771609 -13.125 1.875 C-8.7304329 -0.76174026 -5.00472351 -0.91219098 0 0 Z " fill="#FCFCFC" transform="translate(240,174)"/>
<path d="M0 0 C1.63278989 0.98530424 3.2257412 2.0359108 4.8125 3.09375 C8.86393945 3.45827593 8.86393945 3.45827593 11.875 1.09375 C16.65008525 -1.77539993 21.40453483 -1.66103075 26.8125 -0.90625 C32.21711945 0.6392334 35.86909717 3.43403119 38.9140625 8.14453125 C40.43134941 11.43638416 40.62290748 14.49149213 40.8125 18.09375 C41.71871094 18.04734375 42.62492187 18.0009375 43.55859375 17.953125 C54.01142746 17.64341141 61.39987487 19.11506064 69.2421875 26.24609375 C74.52357207 32.46026017 76.96307961 39.5317767 76.5 47.53125 C76.39286455 50.98363492 76.39286455 50.98363492 76.8125 54.09375 C79.44152262 56.73547754 79.44152262 56.73547754 82.8125 58.09375 C86.63430646 62.23404033 88.5407837 65.73887544 89.1875 71.34375 C88.70551728 76.16357724 86.98070603 79.81273006 84.8125 84.09375 C84.43867188 84.84269531 84.06484375 85.59164062 83.6796875 86.36328125 C83.39351562 86.93433594 83.10734375 87.50539063 82.8125 88.09375 C83.21082031 88.59003906 83.60914063 89.08632812 84.01953125 89.59765625 C90.14778801 97.45554266 93.03345815 104.02084529 91.8125 114.09375 C90.02140872 121.32208266 86.40740181 127.17349332 80.8125 132.09375 C79.53959491 132.73650405 78.24790429 133.34387937 76.9375 133.90625 C73.61128716 135.70727349 73.61128716 135.70727349 73.29296875 138.49609375 C73.17937743 140.4218629 73.09152645 142.34929542 73.02734375 144.27734375 C72.57093365 150.26046521 69.78524458 154.47690486 65.4375 158.46875 C60.28573411 162.83920542 55.11567157 163.26955344 48.5625 162.90625 C42.17846228 162.78768038 38.57565487 163.81444553 33.13671875 166.9609375 C29.02876295 168.96313445 25.24437232 168.96368475 20.8125 168.09375 C15.95019084 166.27470689 11.19575106 164.15147555 7.8125 160.09375 C7.8125 159.43375 7.8125 158.77375 7.8125 158.09375 C7.1525 158.09375 6.4925 158.09375 5.8125 158.09375 C5.565 158.69832031 5.3175 159.30289063 5.0625 159.92578125 C3.60445246 162.45458245 2.31467655 163.32318021 -0.1875 164.78125 C-0.88875 165.19761719 -1.59 165.61398437 -2.3125 166.04296875 C-7.17064265 168.76555286 -11.68121729 168.65621974 -17.1875 168.09375 C-20.44739269 166.95897723 -23.70606589 165.57518411 -26.1875 163.09375 C-28.09685686 163.11695765 -30.00639049 163.14632508 -31.91479492 163.2109375 C-46.08668747 163.63765 -46.08668747 163.63765 -51.1875 159.09375 C-55.17000674 154.7876084 -59.16207356 149.86321906 -59.203125 143.77734375 C-59.25241889 141.02099362 -59.3923915 138.73983687 -60.1875 136.09375 C-62.256148 134.19530721 -64.38556078 132.96279695 -66.828125 131.5859375 C-72.486155 128.00751455 -75.48508485 122.42580998 -77.1875 116.09375 C-77.96883114 107.75349439 -78.23823859 100.06857948 -73.1875 93.09375 C-72.48625 92.10375 -71.785 91.11375 -71.0625 90.09375 C-70.44375 89.43375 -69.825 88.77375 -69.1875 88.09375 C-68.5275 88.09375 -67.8675 88.09375 -67.1875 88.09375 C-67.60902344 87.55105469 -68.03054687 87.00835937 -68.46484375 86.44921875 C-69.01269531 85.73378906 -69.56054688 85.01835937 -70.125 84.28125 C-70.67027344 83.57355469 -71.21554688 82.86585938 -71.77734375 82.13671875 C-75.24475063 77.11330103 -74.97220901 70.94205298 -74.1875 65.09375 C-72.18439601 60.85899995 -69.78009798 57.84924304 -65.51953125 55.828125 C-62.82687145 54.23729928 -62.82687145 54.23729928 -62.5859375 50.80078125 C-62.57820312 49.51558594 -62.57046875 48.23039062 -62.5625 46.90625 C-62.29471976 38.30445108 -60.89385217 32.18265149 -54.9296875 25.69921875 C-48.72567319 19.98206655 -42.95133461 17.94564026 -34.5625 17.96875 C-33.62148437 17.96617187 -32.68046875 17.96359375 -31.7109375 17.9609375 C-29.1875 18.09375 -29.1875 18.09375 -26.1875 19.09375 C-26.3421875 17.36125 -26.3421875 17.36125 -26.5 15.59375 C-26.48157799 10.39874437 -24.54674642 6.96716679 -21.1875 3.09375 C-15.2767553 -1.73134772 -7.21330421 -2.98836889 0 0 Z M12.15991211 11.11547852 C10.26883681 15.29544364 10.36366166 19.01960342 10.37890625 23.55859375 C10.3736644 24.46952286 10.36842255 25.38045197 10.36302185 26.31898499 C10.35661234 28.24121076 10.35792477 30.16347582 10.36645508 32.08569336 C10.37496194 35.01812983 10.34619429 37.94861532 10.31445312 40.88085938 C10.3128408 42.75260359 10.31341923 44.62435123 10.31640625 46.49609375 C10.29955528 47.80416237 10.29955528 47.80416237 10.28236389 49.13865662 C10.34452439 54.60053941 11.13461808 57.78713473 14.8125 62.09375 C19.08078487 64.93927325 22.80514691 64.82691385 27.8125 64.09375 C33.19963734 61.0573635 34.74978553 57.5848073 36.3671875 51.88671875 C36.58761719 50.99919922 36.58761719 50.99919922 36.8125 50.09375 C38.4625 50.09375 40.1125 50.09375 41.8125 50.09375 C42.33098245 55.90075345 41.81182639 59.45768878 38.41015625 64.26171875 C34.79868052 68.40299532 31.35229759 70.74665545 25.83984375 71.5 C19.8172028 71.679112 16.17737789 70.89475749 10.8125 68.09375 C10.74293529 78.55117115 10.68965581 89.00853709 10.65706348 99.46614265 C10.64141939 104.32223825 10.62020402 109.17817532 10.58618164 114.03417969 C10.55354345 118.72205027 10.53563753 123.40976854 10.52786827 128.09774399 C10.52233278 129.88468701 10.51152326 131.67162187 10.49530983 133.45849991 C10.47347615 135.96486562 10.47053553 138.470605 10.47192383 140.97705078 C10.461138 141.71288895 10.45035217 142.44872711 10.4392395 143.2068634 C10.46737628 147.91312659 11.32957854 151.09828193 13.8125 155.09375 C18.15044248 159.00847858 20.73944892 160.39161156 26.6484375 160.31640625 C30.77259339 159.89207974 34.562744 158.49347672 37.375 155.34375 C38.0865625 154.725 38.0865625 154.725 38.8125 154.09375 C41.81025644 154.33846481 44.11927828 154.74713914 46.8125 156.09375 C51.76871057 156.579653 54.90348558 155.91883204 59.13671875 153.5546875 C62.93100061 150.24685203 64.69629783 147.24415144 65.203125 142.2265625 C65.17691906 140.89005978 65.12977076 139.55381588 65.0625 138.21875 C65.04445313 137.53039062 65.02640625 136.84203125 65.0078125 136.1328125 C64.96113748 134.4525119 64.88940939 132.77293837 64.8125 131.09375 C65.45316406 130.88621094 66.09382813 130.67867188 66.75390625 130.46484375 C74.21904064 127.80587636 79.63004398 124.45866204 83.25 117.21875 C84.51442022 110.19419325 84.5959664 103.37747916 80.8125 97.09375 C77.58645499 93.57938696 74.11926334 91.11934858 69.8125 89.09375 C69.8125 87.44375 69.8125 85.79375 69.8125 84.09375 C70.62654297 83.74763672 70.62654297 83.74763672 71.45703125 83.39453125 C74.84457274 81.85030062 77.35230702 80.62584813 79.8125 77.78125 C81.13523531 74.22639885 81.34168182 71.86417048 80.8125 68.09375 C78.68141244 64.45027772 77.46291474 62.67056719 73.4765625 61.27734375 C71.25687873 60.77668952 69.06921669 60.37891246 66.8125 60.09375 C67.6875 53.34375 67.6875 53.34375 68.8125 51.09375 C69.46124658 45.0803682 69.02148147 39.3216271 65.8125 34.09375 C60.81067741 28.59391044 56.01113753 25.14173215 48.5 24.71875 C44.22967705 24.79703925 41.29204686 25.98307165 37.63671875 28.12109375 C35.06082698 29.49453497 32.72660735 30.09375 29.8125 30.09375 C29.4339511 25.55116325 29.4339511 25.55116325 31.3125 23.28125 C33.53443981 20.04092111 33.49085726 16.8433511 32.8125 13.09375 C30.71307475 9.64469424 28.6790419 7.3825973 24.8125 6.09375 C19.68537865 5.41912877 15.4501428 7.09030488 12.15991211 11.11547852 Z M-16.3125 8.96875 C-18.90273135 13.28580226 -18.98133407 17.16362261 -18.1875 22.09375 C-17.5275 23.08375 -16.8675 24.07375 -16.1875 25.09375 C-16.5625 27.78125 -16.5625 27.78125 -17.1875 30.09375 C-20.56986251 29.67095469 -23.01306716 28.68647899 -25.9375 27.03125 C-31.09476012 24.38476125 -35.77349938 24.03896736 -41.32421875 25.75390625 C-47.53923794 28.48851469 -51.65219333 32.88356332 -54.5625 38.96875 C-55.7515049 44.91377452 -55.93804876 49.65973904 -53.1875 55.09375 C-53.5625 57.84375 -53.5625 57.84375 -54.1875 60.09375 C-55.404375 60.3 -56.62125 60.50625 -57.875 60.71875 C-61.29546432 61.59361121 -62.38802241 62.26920711 -65.1875 64.71875 C-67.825337 69.17009993 -67.99716191 70.99287995 -67.1875 76.09375 C-63.95859174 80.39896102 -59.86103056 82.61952794 -55.1875 85.09375 C-55.421875 86.92578125 -55.421875 86.92578125 -56.1875 89.09375 C-58.078125 90.48046875 -58.078125 90.48046875 -60.4375 91.78125 C-65.50341033 95.00501112 -68.27317998 98.37840031 -70.1875 104.09375 C-71.21280241 109.99839337 -70.5087579 115.07195996 -67.51171875 120.27734375 C-63.19055129 126.20460885 -58.06806713 128.92093933 -51.1875 131.09375 C-51.23390625 132.10695313 -51.2803125 133.12015625 -51.328125 134.1640625 C-51.36566758 135.51559532 -51.40206506 136.86716028 -51.4375 138.21875 C-51.47101563 138.88390625 -51.50453125 139.5490625 -51.5390625 140.234375 C-51.64001252 145.38282617 -50.42504262 148.14962384 -47.1875 152.09375 C-44.4593627 154.6360288 -41.70867968 156.05664806 -37.9453125 156.1484375 C-34.51650993 155.79054902 -31.28209977 155.11739994 -27.9375 154.28125 C-25.1875 154.09375 -25.1875 154.09375 -22.5625 155.90625 C-21.77875 156.628125 -20.995 157.35 -20.1875 158.09375 C-16.49425583 160.64081494 -12.5252345 160.62968631 -8.1875 160.09375 C-3.48755971 158.37646412 -0.97790501 156.22768334 1.8125 152.09375 C3.07263376 148.31334872 3.11381603 144.72334239 3.1875 140.78125 C3.22488281 140.03423828 3.26226562 139.28722656 3.30078125 138.51757812 C3.36581605 134.40232065 3.05730532 131.86538273 0.4140625 128.61328125 C-3.60822645 124.71782123 -6.28075527 124.75770676 -11.70703125 124.8046875 C-15.18712092 125.21024126 -16.85434061 126.54185692 -19.1875 129.09375 C-21.12145001 131.99467502 -21.48881941 132.99049737 -21.8125 136.28125 C-21.998125 138.1684375 -21.998125 138.1684375 -22.1875 140.09375 C-24.1675 140.09375 -26.1475 140.09375 -28.1875 140.09375 C-28.82286471 133.99424882 -28.24706245 129.88790821 -24.68359375 124.8203125 C-21.48619827 121.13036785 -17.92787104 119.0191263 -13.1875 118.09375 C-11.56537701 117.97864886 -9.93865216 117.91891474 -8.3125 117.90625 C-7.49007812 117.89207031 -6.66765625 117.87789063 -5.8203125 117.86328125 C-2.72239709 118.13446376 -0.11622687 119.0757312 2.8125 120.09375 C2.90598493 106.22910323 2.97623343 92.3645054 3.01974869 78.49960804 C3.04063273 72.06172068 3.06896597 65.62404489 3.11425781 59.1862793 C3.15768539 52.97470199 3.18163095 46.76332833 3.19200897 40.55161095 C3.19940581 38.18049602 3.21384989 35.80939237 3.23542023 33.43836403 C3.26441223 30.11987758 3.26845763 26.80223508 3.26660156 23.48364258 C3.28098267 22.50108994 3.29536377 21.51853729 3.31018066 20.50621033 C3.28389682 16.16980862 3.22661527 13.76535441 0.90911865 10.00688171 C-2.79014157 6.63136465 -5.833366 6.68112394 -10.69921875 6.765625 C-13.43098517 6.95794253 -13.43098517 6.95794253 -16.3125 8.96875 Z " fill="#080808" transform="translate(243.1875,166.90625)"/>
<path d="M0 0 C3.29062994 0.74283512 3.29062994 0.74283512 5.4375 -0.5625 C11.46778665 -1.12648364 16.22658083 -0.94959746 21.4375 2.4375 C23.4375 4.4375 23.4375 4.4375 23.625 7 C23.4375 9.4375 23.4375 9.4375 22.4375 10.4375 C18.71525401 10.73136153 17.65963757 10.58559171 14.4375 8.4375 C12.3882906 7.98610541 12.3882906 7.98610541 10.25 7.8125 C8.991875 7.68875 7.73375 7.565 6.4375 7.4375 C6.7675 8.118125 7.0975 8.79875 7.4375 9.5 C9.228404 14.76078049 8.96702692 18.79739231 6.5625 23.75 C5.32638298 26.08030949 4.32383845 27.55116155 2.4375 29.4375 C-0.1875 29.0625 -0.1875 29.0625 -2.5625 28.4375 C-3.25 26.25 -3.25 26.25 -3.5625 23.4375 C-2.5751546 21.76330562 -1.57437895 20.09698148 -0.5625 18.4375 C-0.04541572 14.81791003 -0.06541529 13.17318537 -2.125 10.125 C-5.35941808 7.88578748 -7.64296521 7.50626377 -11.5625 7.4375 C-13.25006133 8.40182076 -14.91916496 9.39960419 -16.5625 10.4375 C-19.375 10.125 -19.375 10.125 -21.5625 9.4375 C-21.8925 8.1175 -22.2225 6.7975 -22.5625 5.4375 C-15.91797526 -2.18215977 -9.38659892 -1.22879113 0 0 Z " fill="#090909" transform="translate(285.5625,268.5625)"/>
<path d="M0 0 C2.6875 0.375 2.6875 0.375 4.9375 2.75 C7.48118917 6.56553376 7.86971957 8.60667235 7.9375 13.1875 C7.96328125 14.22519531 7.9890625 15.26289063 8.015625 16.33203125 C7.6475156 19.74580771 6.53215088 21.53095606 4.6875 24.375 C5.48809877 27.13261799 7.0747773 28.8875729 8.8125 31.1875 C11.01735224 34.93574882 11.18134131 37.09504198 10.6875 41.375 C8.6875 43.375 8.6875 43.375 6.25 43.5 C3.6875 42.375 3.6875 42.375 2.87109375 40.625 C2.42065067 39.22476552 2.01423494 37.80948778 1.65625 36.3828125 C0.25603115 33.48074601 -1.4244243 32.72358106 -4.3125 31.375 C-7.22471041 30.77651176 -7.22471041 30.77651176 -10.25 30.5 C-15.81140251 29.70453429 -18.47395084 28.42680189 -22.3125 24.375 C-21.9825 22.725 -21.6525 21.075 -21.3125 19.375 C-19 18.6875 -19 18.6875 -16.3125 18.375 C-15.879375 18.849375 -15.44625 19.32375 -15 19.8125 C-13.20896127 21.78127698 -13.20896127 21.78127698 -9.375 21.8125 C-6.44979664 21.68344691 -5.41178722 21.43864565 -2.875 19.8125 C-0.80475083 16.5829113 -0.38077758 14.19854429 -0.3125 10.375 C-1.7041876 8.24155232 -1.7041876 8.24155232 -3.3125 6.375 C-3.5625 3.6875 -3.5625 3.6875 -3.3125 1.375 C-2.3125 0.375 -2.3125 0.375 0 0 Z " fill="#090909" transform="translate(218.3125,210.625)"/>
</svg>
